<svg width="1920" height="103" viewBox="0 0 1920 103" fill="none" xmlns="http://www.w3.org/2000/svg">
<path d="M1918.78 12.8724L1950 43.7449V103H-48V43.7449L-16.7812 12.8724C0.516479 -4.23337 28.3586 -4.23336 45.6562 12.8724C62.954 29.9782 90.7961 29.9782 108.094 12.8724C125.391 -4.23336 153.234 -4.23336 170.531 12.8724C187.829 29.9782 215.671 29.9782 232.969 12.8724C250.266 -4.23336 278.109 -4.23336 295.406 12.8724C312.704 29.9782 340.546 29.9782 357.844 12.8724C375.141 -4.23336 402.984 -4.23336 420.281 12.8724C437.579 29.9782 465.421 29.9782 482.719 12.8724C500.016 -4.23336 527.859 -4.23336 545.156 12.8724C562.454 29.9782 590.296 29.9782 607.594 12.8724C624.891 -4.23336 652.734 -4.23336 670.031 12.8724C687.329 29.9782 715.171 29.9782 732.469 12.8724C749.766 -4.23336 777.609 -4.23336 794.906 12.8724C812.204 29.9782 840.046 29.9782 857.344 12.8724C874.641 -4.23336 902.484 -4.23336 919.781 12.8724C937.079 29.9782 964.921 29.9782 982.219 12.8724C999.516 -4.23336 1027.36 -4.23336 1044.66 12.8724C1061.95 29.9782 1089.8 29.9782 1107.09 12.8724C1124.39 -4.23336 1152.23 -4.23336 1169.53 12.8724C1186.83 29.9782 1214.67 29.9782 1231.97 12.8724C1249.27 -4.23336 1277.11 -4.23336 1294.41 12.8724C1311.7 29.9782 1339.55 29.9782 1356.84 12.8724C1374.14 -4.23336 1401.98 -4.23336 1419.28 12.8724C1436.58 29.9782 1464.42 29.9782 1481.72 12.8724C1499.02 -4.23336 1526.86 -4.23336 1544.16 12.8724C1561.45 29.9782 1589.3 29.9782 1606.59 12.8724C1623.89 -4.23336 1651.73 -4.23336 1669.03 12.8724C1686.33 29.9782 1714.17 29.9782 1731.47 12.8724C1748.77 -4.23336 1776.61 -4.23336 1793.91 12.8724C1811.2 29.9782 1839.05 29.9782 1856.34 12.8724C1873.64 -4.23336 1901.48 -4.23336 1918.78 12.8724Z" fill="#FAF338"/>
</svg>
